<?xml version="1.0" encoding="utf-8"?>
<!-- Generator: Adobe Illustrator 24.1.2, SVG Export Plug-In . SVG Version: 6.00 Build 0)  -->
<svg version="1.1" id="Layer_1" xmlns="http://www.w3.org/2000/svg" xmlns:xlink="http://www.w3.org/1999/xlink" x="0px" y="0px"
	 viewBox="0 0 512 512" style="enable-background:new 0 0 512 512;" xml:space="preserve">
<g>
	<g>
		<path d="M250.9,0h-69c-33.3,0-60.3,27-60.3,60.3v148.1c0,13,4.2,25.1,11.2,34.9H60.3C27,243.3,0,270.3,0,303.6v148.1
			C0,485,27,512,60.3,512h148.1c19.3,0,36.6-9.2,47.6-23.4c11,14.2,28.3,23.4,47.6,23.4h148.1c33.3,0,60.3-27,60.3-60.3V303.6
			c0-33.3-27-60.3-60.3-60.3h-72.5c7-9.9,11.2-21.9,11.2-34.9V60.3c0-33.7-27.7-61-61.5-60.3 M330.1,25.4
			c19.3,0,34.9,15.7,34.9,34.9v148.1c0,19.3-15.6,34.9-34.9,34.9H181.9c-19.3,0-34.9-15.6-34.9-34.9V60.3
			c0-19.3,15.6-34.9,34.9-34.9l68.5,0 M243.3,451.7c0,19.3-15.6,34.9-34.9,34.9H60.3c-19.3,0-34.9-15.6-34.9-34.9V303.6
			c0-19.3,15.6-34.9,34.9-34.9h121.6h26.4c19.3,0,34.9,15.6,34.9,34.9V451.7z M486.6,451.7c0,19.3-15.7,34.9-34.9,34.9H303.6
			c-19.3,0-34.9-15.6-34.9-34.9V303.6c0-19.3,15.6-34.9,34.9-34.9h26.5h121.6c19.3,0,34.9,15.6,34.9,34.9L486.6,451.7L486.6,451.7z"
			/>
	</g>
</g>
<g>
	<g>
		<path d="M168.1,377.7c0.2-0.2,0.4-0.3,0.5-0.5c8.5-8.5,13.2-19.8,13.2-31.8c0-24.8-20.2-45-45-45H99.6c-7,0-12.7,5.7-12.7,12.7
			v64.6v64.6c0,7,5.7,12.7,12.7,12.7h37.2c12,0,23.3-4.7,31.8-13.2c8.5-8.5,13.2-19.8,13.2-31.8
			C181.8,397.3,176.5,385.9,168.1,377.7z M150.7,423.8c-3.7,3.7-8.6,5.7-13.9,5.7h-24.6v-39.2h24.6c10.8,0,19.6,8.8,19.6,19.6
			C156.4,415.2,154.4,420.1,150.7,423.8z M150.7,359.2c-3.7,3.7-8.6,5.7-13.9,5.7h-24.6v-39.2h24.6l0,0c10.8,0,19.6,8.8,19.6,19.6
			C156.4,350.6,154.4,355.5,150.7,359.2z"/>
	</g>
</g>
<path d="M299.9,211.9c-1.9,0-3.8-0.4-5.5-1.2c-1.7-0.8-3.2-1.9-4.5-3.4l-31.1-36.2L227.7,135l26.8-36.4l26.8-36.4
	c1.2-1.7,2.8-3,4.6-3.9c1.8-0.9,3.9-1.4,6-1.4c1.5,0,2.9,0.2,4.2,0.7c1.3,0.5,2.6,1.1,3.8,2c1.4,1,2.5,2.3,3.3,3.7s1.4,3,1.6,4.7
	c0.2,1.6,0.1,3.2-0.3,4.7c-0.4,1.5-1.1,3-2.1,4.3l-20.9,28.4l-20.9,28.4l24.6,28.6l24.6,28.6c1.1,1.3,1.9,2.7,2.4,4.2
	c0.5,1.5,0.7,3.1,0.6,4.8c-0.1,1.7-0.5,3.2-1.2,4.7c-0.7,1.5-1.7,2.8-3,3.9c-1.2,1.1-2.6,1.9-4.1,2.5S301.5,211.9,299.9,211.9z
	 M212.1,211.7c-3.6,0-6.8-1.4-9.2-3.7c-2.4-2.3-3.8-5.5-3.8-9v-64.7V69.7c0-3.5,1.5-6.7,3.8-9c2.4-2.3,5.6-3.7,9.2-3.7
	c3.6,0,6.8,1.4,9.2,3.7c2.4,2.3,3.8,5.5,3.8,9v64.7V199c0,3.5-1.5,6.7-3.8,9C218.9,210.3,215.7,211.7,212.1,211.7z"/>
<path d="M421.9,455.2c-1.9,0-3.8-0.4-5.5-1.2s-3.2-1.9-4.5-3.4l-31.1-36.2l-31.1-36.2l26.8-36.4l26.8-36.4c1.2-1.7,2.8-3,4.6-3.9
	c1.8-0.9,3.9-1.4,6-1.4c1.5,0,2.9,0.2,4.2,0.7c1.3,0.5,2.6,1.1,3.8,2c1.4,1,2.5,2.3,3.3,3.7c0.8,1.4,1.4,3,1.6,4.7
	c0.2,1.6,0.1,3.2-0.3,4.7c-0.4,1.5-1.1,3-2.1,4.3l-20.9,28.4l-20.9,28.4l24.6,28.6l24.6,28.6c1.1,1.3,1.9,2.7,2.4,4.2
	c0.5,1.5,0.7,3.1,0.6,4.8c-0.1,1.7-0.5,3.2-1.2,4.7c-0.7,1.5-1.7,2.8-3,3.9c-1.2,1.1-2.6,1.9-4.1,2.5
	C425.1,454.9,423.5,455.2,421.9,455.2z M334.1,455c-3.6,0-6.8-1.4-9.2-3.7c-2.4-2.3-3.8-5.5-3.8-9v-64.7V313c0-3.5,1.5-6.7,3.8-9
	c2.4-2.3,5.6-3.7,9.2-3.7c3.6,0,6.8,1.4,9.2,3.7c2.4,2.3,3.8,5.5,3.8,9v64.7v64.7c0,3.5-1.5,6.7-3.8,9
	C340.9,453.6,337.7,455,334.1,455z"/>
</svg>
